<?xml version="1.0" encoding="UTF-8"?>
<svg xmlns="http://www.w3.org/2000/svg" viewBox="0 0 500 500">
  <defs>
    <style>
      .cls-1 {
        stroke-width: .73px;
      }

      .cls-1, .cls-2, .cls-3, .cls-4, .cls-5, .cls-6, .cls-7, .cls-8, .cls-9 {
        stroke-miterlimit: 10;
      }

      .cls-1, .cls-2, .cls-4, .cls-5, .cls-7, .cls-8, .cls-9 {
        stroke: #444c73;
      }

      .cls-1, .cls-2, .cls-5, .cls-7, .cls-8 {
        stroke-linecap: round;
      }

      .cls-1, .cls-3, .cls-4, .cls-6, .cls-7, .cls-9 {
        fill: none;
      }

      .cls-10 {
        fill: #fff;
      }

      .cls-11 {
        fill: #47549b;
      }

      .cls-12, .cls-13, .cls-14, .cls-15, .cls-16, .cls-17 {
        mix-blend-mode: multiply;
        opacity: .15;
      }

      .cls-12, .cls-18, .cls-19 {
        fill: #6676de;
      }

      .cls-13, .cls-20 {
        fill: #4c5fce;
      }

      .cls-21 {
        opacity: .64;
      }

      .cls-21, .cls-2, .cls-5, .cls-8 {
        fill: #6775e1;
      }

      .cls-22 {
        isolation: isolate;
      }

      .cls-23 {
        mix-blend-mode: overlay;
        opacity: .2;
      }

      .cls-23, .cls-24 {
        fill: #dfe4f2;
      }

      .cls-2 {
        stroke-width: .45px;
      }

      .cls-14 {
        fill: #dd4e2a;
      }

      .cls-3 {
        stroke-width: .91px;
      }

      .cls-3, .cls-6 {
        stroke: #6676de;
      }

      .cls-4 {
        stroke-width: .98px;
      }

      .cls-16 {
        fill: #4455b0;
      }

      .cls-25 {
        fill: #5362b7;
      }

      .cls-18 {
        fill-rule: evenodd;
      }

      .cls-5 {
        stroke-width: .48px;
      }

      .cls-17, .cls-26 {
        fill: #e69784;
      }

      .cls-7 {
        stroke-width: .69px;
      }

      .cls-27 {
        fill: #444c73;
      }

      .cls-8 {
        stroke-width: .55px;
      }

      .cls-9 {
        stroke-width: .94px;
      }
    </style>
  </defs>
  <g class="cls-22">
    <g id="OBJECTS">
      <g>
        <path class="cls-17" d="m241.52,161.25c17.08-6.05,35.95-8.64,53.36-3.63,13.09,3.77,34.97,36.69,28.72,75.83-2.69,16.84,9.32,34.3,25.4,44.37,7.62,4.77,17.41,4.01,26.03,5.19,19.11,2.61,38.17,16.28,40.38,35.44,2.14,18.51-12.54,40.29-23.72,54-28.8,35.31-79.91,54.43-123.71,35.23-21.24-9.31-39.77-29.02-54.61-46.43-15.56-18.25-22.57-42.66-23.73-66.27-1.45-29.27,5.16-58.12,12.44-86.27,5.56-21.51,17.66-39.75,39.44-47.46Z"/>
        <path class="cls-17" d="m189.35,333.67c-1.96-6.2-4.31-12.44-8.5-17.41-5.81-6.89-14.49-10.58-22.92-13.78-7.82-2.96-15.8-5.73-24.12-6.59-21.49-2.24-43.78,9.71-53.81,28.85-3.31,6.31-5.15,14.6-.71,20.17,1.94,2.44,4.79,3.95,7.55,5.39,9.29,4.83,18.57,9.67,27.86,14.5,9.7,5.05,20.71,12.06,21.13,22.99.41,10.65-6.23,19.92,3.73,28.54,6.7,5.8,19.12,7.83,27.64,5.8,18.85-4.49,26.68-30.16,28.04-46.92,1.14-14.06-1.68-28.17-5.9-41.53Z"/>
        <path class="cls-17" d="m185.16,177.57c6.96-19.46.33-59.58-17.77-71.53-8.4-5.54-16.83-6.07-26.12-2.8-8.49,2.98-16.95,7.43-23.89,13.2-6.09,5.07-10.31,12.02-13.82,19.03-6.66,13.3-12.32,30.32-27.17,36.59-5.7,2.41-12.21,2.81-17.53,5.97-11.95,7.12-11.87,26.21-2.27,35.38,8.24,7.88,21.71,10.42,32.63,10.25,39.22-.6,83.03-10.02,95.92-46.08Z"/>
        <path class="cls-17" d="m389.54,269.23c20.37,3.52,58.76-9.88,67.43-29.76,4.02-9.22,3.09-17.62-1.71-26.21-4.39-7.85-10.22-15.43-17.1-21.27-6.04-5.13-13.61-8.1-21.11-10.35-14.24-4.28-31.98-6.94-40.7-20.5-3.35-5.21-4.86-11.55-8.89-16.25-9.06-10.55-27.85-7.2-35.24,3.82-6.35,9.47-6.55,23.17-4.51,33.91,7.31,38.53,24.09,80.09,61.84,86.61Z"/>
        <g>
          <path class="cls-26" d="m154.18,368.84c3.03,0,3.39.01,4.58.07,1.11.05,1.71.24,2.11.39.53.21.91.45,1.3.85.4.4.64.77.85,1.3.16.4.34,1,.39,2.11.05,1.2.07,1.55.07,4.58s-.01,3.39-.07,4.58c-.05,1.11-.24,1.71-.39,2.11-.21.53-.45.91-.85,1.3s-.77.64-1.3.85c-.4.16-1,.34-2.11.39-1.2.05-1.55.07-4.58.07s-3.39-.01-4.58-.07c-1.11-.05-1.71-.24-2.11-.39-.53-.21-.91-.45-1.3-.85-.4-.4-.64-.77-.85-1.3-.16-.4-.34-1-.39-2.11-.05-1.2-.07-1.55-.07-4.58s.01-3.39.07-4.58c.05-1.11.24-1.71.39-2.11.21-.53.45-.91.85-1.3.4-.4.77-.64,1.3-.85.4-.16,1-.34,2.11-.39,1.2-.05,1.56-.07,4.58-.07m0-2.04c-3.08,0-3.47.01-4.68.07-1.21.06-2.03.25-2.75.53-.75.29-1.38.68-2.01,1.31-.63.63-1.02,1.26-1.31,2.01-.28.72-.47,1.55-.53,2.75-.06,1.21-.07,1.6-.07,4.68s.01,3.47.07,4.68c.05,1.21.25,2.03.53,2.75.29.75.68,1.38,1.31,2.01.63.63,1.26,1.02,2.01,1.31.72.28,1.55.47,2.75.53,1.21.06,1.6.07,4.68.07s3.47-.01,4.68-.07c1.21-.06,2.03-.25,2.75-.53.75-.29,1.38-.68,2.01-1.31.63-.63,1.02-1.26,1.31-2.01.28-.72.47-1.55.53-2.75.06-1.21.07-1.6.07-4.68s-.01-3.47-.07-4.68c-.06-1.21-.25-2.03-.53-2.75-.29-.75-.68-1.38-1.31-2.01-.63-.63-1.26-1.02-2.01-1.31-.72-.28-1.55-.47-2.75-.53-1.21-.06-1.6-.07-4.68-.07"/>
          <path class="cls-26" d="m154.18,373.02c-2.83,0-5.13,2.29-5.13,5.13s2.29,5.13,5.13,5.13,5.13-2.29,5.13-5.13-2.29-5.13-5.13-5.13m0,8.45c-1.84,0-3.33-1.49-3.33-3.33s1.49-3.33,3.33-3.33,3.33,1.49,3.33,3.33-1.49,3.33-3.33,3.33"/>
          <path class="cls-26" d="m160.67,371.79c0,.75-.61,1.36-1.36,1.36s-1.36-.61-1.36-1.36.61-1.36,1.36-1.36,1.36.61,1.36,1.36"/>
        </g>
        <path class="cls-26" d="m350,200.52c-22.69.39-22.68,34.13,0,34.52,22.69-.39,22.68-34.13,0-34.52Zm0,3c3.27,0,6.28,1.12,8.69,2.98-1.73,2.23-4.12,4-7.17,5.29-1.46-2.68-3.13-5.29-5.02-7.82,1.12-.28,2.29-.45,3.5-.45Zm-6.43,1.55c1.92,2.51,3.61,5.09,5.09,7.74-3.5,1.03-7.67,1.56-12.49,1.59,1-4.08,3.74-7.47,7.4-9.33Zm-7.83,12.71c0-.12.02-.24.02-.37,5.53,0,10.31-.64,14.31-1.9.34.68.66,1.37.96,2.06-4.86,1.52-8.87,4.63-11.99,9.32-2.06-2.47-3.3-5.65-3.3-9.11Zm14.26,14.26c-3.3,0-6.33-1.14-8.75-3.02,2.83-4.44,6.45-7.33,10.93-8.67,1.33,3.48,2.31,7.06,2.94,10.73-1.59.61-3.31.96-5.12.96Zm7.91-2.41c-.63-3.38-1.55-6.69-2.76-9.92,2.7-.38,5.67-.28,8.92.28-.63,4.01-2.92,7.47-6.15,9.64Zm-3.91-12.76c-.35-.81-.71-1.62-1.1-2.42,3.32-1.44,5.99-3.39,7.98-5.87,1.94,2.29,3.16,5.2,3.34,8.39-3.7-.61-7.11-.64-10.22-.11Z"/>
        <path class="cls-17" d="m194.11,178.69c2.87-.1,5.4-2.78,5.34-5.65-.08-3.32-5.45-5.1-7.72-2.86-2.77,2.75-2.36,8.66,2.38,8.51Z"/>
        <path class="cls-17" d="m407.46,168.32c7.48-.25,14.07-7.23,13.9-14.71-.2-8.64-14.2-13.28-20.09-7.44-7.22,7.15-6.15,22.56,6.19,22.15Z"/>
        <path class="cls-17" d="m215.7,438.84c10.4-.35,19.57-10.05,19.34-20.45-.28-12.02-19.75-18.47-27.94-10.35-10.03,9.94-8.55,31.37,8.61,30.8Z"/>
        <g>
          <path class="cls-19" d="m202,102.84c7.14-1.28,12.51-8.89,11.3-16.05-1.39-8.27-15.48-10.77-20.32-4.35-5.93,7.87-2.77,22.51,9.02,20.4Z"/>
          <path class="cls-10" d="m200.5,91.27l-1.61,1.76c-.24.26-.22.68.04.92.26.24.67.22.92-.04l1.69-1.85,2.01,1.51c.29.21.69.16.91-.13.21-.29.16-.69-.13-.91l-1.91-1.43,1.61-1.76c.24-.26.22-.68-.04-.92-.14-.13-.32-.18-.5-.17-.15.01-.3.08-.42.21l-1.69,1.85-2.01-1.51c-.13-.1-.29-.14-.45-.13-.18.02-.34.1-.46.26-.22.29-.16.69.13.91l1.91,1.43Z"/>
        </g>
        <path class="cls-6" d="m366.44,318.33c14.07-11.92,28.28-23.67,42.63-35.25"/>
        <path class="cls-6" d="m428.19,291.92c-5.92,35.46-9.67,57.88-15.59,93.33"/>
        <path class="cls-6" d="m353.65,397.03c2.42,0,23.19,7.39,23.19,7.39"/>
        <line class="cls-6" x1="74.16" y1="311.4" x2="52.6" y2="251.9"/>
        <g>
          <path class="cls-19" d="m100.41,194.18c12.5-2.76,21.41-16.57,18.78-29.1-3.04-14.48-28.06-17.89-36.14-6.22-9.9,14.29-3.27,39.88,17.35,35.32Z"/>
          <path class="cls-10" d="m97.17,162.01c-5.78.41-10.13,5.43-9.72,11.21.41,5.78,5.43,10.13,11.21,9.72,5.78-.41,10.13-5.43,9.72-11.21-.41-5.78-5.43-10.13-11.21-9.72Zm5.89,14.78c-.19.33-.55.46-.87.27-2.57-1.34-5.68-1.44-9.28-.34-.36.13-.69-.11-.82-.41-.13-.36.11-.69.41-.82,3.91-1.17,7.39-1.05,10.23.43.38.13.46.55.32.87Zm1.05-2.97c-.24.38-.69.58-1.08.34-2.95-1.53-7.27-1.74-10.5-.46-.41.13-.9-.04-1.03-.45-.13-.41.04-.9.45-1.03,3.74-1.42,8.49-1.18,11.87.58.32.13.52.65.28,1.03Zm-.1-2.94c-3.49-1.75-9.1-1.56-12.22-.34-.51.19-1.06-.08-1.25-.54-.19-.51.08-1.06.54-1.25,3.64-1.36,9.77-1.59,13.81.44.49.23.69.84.46,1.33-.24.38-.85.59-1.34.36Z"/>
        </g>
        <path class="cls-3" d="m144.46,136.76s-9.01.06-11.03.07c-1.13,0-1.27-1.81-1.11-2.28.07-.22.25-.39.42-.55,1.6-1.47,5.82-4.51,6-4.9.32-.71-4.05-7.57-3.63-11.65.46-4.52,4.4-8.46,9.36-8.14h-.59c4.95-.32,8.9,3.62,9.36,8.14.42,4.08-3.95,10.94-3.63,11.65.17.39,4.4,3.43,6,4.9.17.16.35.33.42.55.16.47.02,2.28-1.11,2.28-2.02,0-11.03-.07-11.03-.07h.59Z"/>
        <path class="cls-6" d="m409.39,220.64s-9.95.07-12.17.07c-1.25,0-1.4-1.99-1.23-2.51.08-.24.28-.43.47-.6,1.76-1.62,6.43-4.97,6.62-5.4.35-.79-4.47-8.36-4.01-12.86.51-4.99,4.86-9.34,10.33-8.99h-.65c5.47-.35,9.82,3.99,10.33,8.99.46,4.5-4.36,12.07-4.01,12.86.19.43,4.85,3.79,6.62,5.4.19.17.38.36.47.6.17.52.02,2.52-1.23,2.51-2.23,0-12.17-.07-12.17-.07h.65Z"/>
        <path class="cls-6" d="m359.7,287.97c-.97.05-1.1-1.59-1.18-2.05-.16-.95-.32-1.9-.48-2.85-.13-.75-.15-1.56-.9-1.97-1.22-.67-3.27-.34-3.47-1.29-.25-1.18,2.18-1.05,2.81-1.03.62.02,1.81-.02,1.96-.71.13-.6,0-1.09,0-1.69.01-1.22.06-2.57.2-3.61.14-1.04.64-2.12,1.06-2.12.49,0,1.05.96,1.2,2.28.12.97.21,4.54.34,5.14.15.69,1.06.72,1.67.71.63-.02,3.06-.15,2.81,1.03-.2.96-2.25.62-3.47,1.29-.75.41-.77,1.22-.9,1.97-.16.95-.32,1.9-.48,2.85-.08.46-.21,2.1-1.18,2.05"/>
        <path class="cls-6" d="m405.52,173.27c-.97.05-1.1-1.59-1.18-2.05-.16-.95-.32-1.9-.48-2.85-.13-.75-.15-1.56-.9-1.97-1.22-.67-3.27-.34-3.47-1.29-.25-1.18,2.18-1.05,2.81-1.03.62.02,1.81-.02,1.96-.71.13-.6,0-1.09,0-1.69.01-1.22.06-2.57.2-3.61.14-1.04.64-2.12,1.06-2.12.49,0,1.05.96,1.2,2.28.12.97.21,4.54.34,5.14.15.69,1.06.72,1.67.71.63-.02,3.06-.15,2.81,1.03-.2.96-2.25.62-3.47,1.29-.75.41-.77,1.22-.9,1.97-.16.95-.32,1.9-.48,2.85-.08.46-.21,2.1-1.18,2.05"/>
        <path class="cls-6" d="m153.84,175.01c-.97.05-1.1-1.59-1.18-2.05-.16-.95-.32-1.9-.48-2.85-.13-.75-.15-1.56-.9-1.97-1.22-.67-3.27-.34-3.47-1.29-.25-1.18,2.18-1.05,2.81-1.03.62.02,1.81-.02,1.96-.71.13-.6,0-1.09,0-1.69.01-1.22.06-2.57.2-3.61.14-1.04.65-2.12,1.06-2.12.49,0,1.05.96,1.2,2.28.12.97.21,4.54.34,5.14.15.69,1.06.72,1.67.71.63-.02,3.06-.15,2.81,1.03-.2.96-2.25.62-3.47,1.29-.75.41-.77,1.22-.9,1.97-.16.95-.32,1.9-.48,2.85-.08.46-.21,2.1-1.18,2.05"/>
        <path class="cls-6" d="m80.28,130.52c-.97.05-1.1-1.59-1.18-2.05-.16-.95-.32-1.9-.48-2.85-.13-.75-.15-1.56-.9-1.97-1.22-.67-3.27-.34-3.47-1.29-.25-1.18,2.18-1.05,2.81-1.03.62.02,1.81-.02,1.96-.71.13-.6,0-1.09,0-1.69.01-1.22.06-2.57.2-3.61.14-1.04.64-2.12,1.06-2.12.49,0,1.05.96,1.2,2.28.12.97.21,4.54.34,5.14.15.69,1.06.72,1.67.71.63-.02,3.06-.15,2.81,1.03-.2.96-2.25.62-3.47,1.29-.75.41-.77,1.22-.9,1.97-.16.95-.32,1.9-.48,2.85-.08.46-.21,2.1-1.18,2.05"/>
        <path class="cls-6" d="m97.22,410.5c-.97.05-1.1-1.59-1.18-2.05-.16-.95-.32-1.9-.48-2.85-.13-.75-.15-1.56-.9-1.97-1.22-.67-3.27-.34-3.47-1.29-.25-1.18,2.18-1.05,2.81-1.03.62.02,1.81-.02,1.96-.71.13-.6,0-1.09,0-1.69.01-1.22.06-2.57.2-3.61.14-1.04.65-2.12,1.06-2.12.49,0,1.05.96,1.2,2.28.12.97.21,4.54.34,5.14.15.69,1.06.72,1.67.71.63-.02,3.06-.15,2.81,1.03-.2.96-2.25.62-3.47,1.29-.75.41-.77,1.22-.9,1.97-.16.95-.32,1.9-.48,2.85-.08.46-.21,2.1-1.18,2.05"/>
        <g>
          <g>
            <path class="cls-18" d="m444.86,263.95c-.2-7.74-6.57-13.95-14.42-13.95s-14.08,6.07-14.41,13.69c0,.21-.01.42-.01.63,0,2.71.76,5.23,2.07,7.4l-2.6,7.68,7.99-2.54c2.07,1.13,4.44,1.78,6.97,1.78,7.97,0,14.43-6.41,14.43-14.32,0-.12,0-.24,0-.36Zm-14.42,12.4c-2.47,0-4.75-.73-6.67-1.99l-4.66,1.49,1.51-4.47c-1.45-1.99-2.31-4.42-2.31-7.06,0-.39.02-.78.06-1.17.59-6.09,5.78-10.87,12.07-10.87s11.6,4.9,12.09,11.1c.03.31.04.62.04.94,0,6.64-5.44,12.04-12.13,12.04Z"/>
            <path class="cls-18" d="m437.05,267.2c-.36-.18-2.09-1.03-2.42-1.14-.32-.12-.56-.18-.8.18-.24.35-.92,1.14-1.12,1.37-.21.24-.41.26-.77.09-.35-.18-1.49-.54-2.84-1.74-1.05-.93-1.76-2.07-1.97-2.42-.2-.35-.02-.54.16-.72.16-.16.35-.41.53-.61.05-.06.09-.11.13-.17.08-.13.14-.25.22-.42.12-.24.06-.44-.03-.61-.09-.18-.8-1.9-1.09-2.61-.29-.7-.59-.58-.8-.58s-.44-.03-.68-.03-.62.09-.95.44c-.32.35-1.24,1.2-1.24,2.93,0,.41.07.81.18,1.2.36,1.24,1.13,2.26,1.26,2.43.18.23,2.44,3.89,6.04,5.3,3.6,1.4,3.6.93,4.25.87.65-.05,2.09-.84,2.38-1.67.3-.82.3-1.52.21-1.67-.09-.14-.32-.23-.68-.41Z"/>
          </g>
          <g>
            <path class="cls-6" d="m421.06,242.69c-5.5,2.71-14.67,11.42-14.67,21.63,0,19.8,22.12,32.66,38.52,18.5,6.72-5.8,11.29-17.4,7.9-25.6-5.53-13.39-19.68-20.48-31.75-14.53Z"/>
            <path class="cls-6" d="m416.67,250.23c-2.1,1.69-3.65,4.06-4.36,6.67"/>
            <path class="cls-6" d="m411.41,260.6c-.04,1-.08,2-.13,3"/>
            <path class="cls-6" d="m449.99,262.51c-.32,8.09-5.14,15.85-12.24,19.73"/>
          </g>
        </g>
        <g>
          <path class="cls-19" d="m88.64,355.15h5.41v-13.56h3.78l.4-4.54h-4.18v-2.59c0-1.07.22-1.49,1.25-1.49h2.93v-4.71h-3.75c-4.03,0-5.84,1.77-5.84,5.17v3.62h-2.82v4.6h2.82v13.5Z"/>
          <g>
            <path class="cls-6" d="m82.91,319.71c-5.62,2.44-14.67,11.42-14.67,21.63,0,19.8,22.12,32.66,38.52,18.5,6.72-5.8,11.07-17.74,6.92-27.79-4.03-9.76-15.45-18.98-30.77-12.34Z"/>
            <path class="cls-6" d="m78.52,327.24c-2.1,1.69-3.65,4.06-4.36,6.67"/>
            <path class="cls-6" d="m73.27,337.62c-.04,1-.08,2-.13,3"/>
            <path class="cls-6" d="m111.85,339.52c-.32,8.09-5.14,15.85-12.24,19.73"/>
          </g>
        </g>
        <g>
          <path class="cls-19" d="m40.26,222.86c.35.14.67,0,.77-.39.07-.27.24-.95.31-1.24.1-.39.06-.52-.22-.86-.62-.73-1.02-1.68-1.02-3.03,0-3.9,2.92-7.39,7.6-7.39,4.14,0,6.42,2.53,6.42,5.92,0,4.45-1.97,8.21-4.89,8.21-1.61,0-2.82-1.34-2.44-2.97.47-1.96,1.36-4.07,1.36-5.48,0-1.26-.68-2.32-2.08-2.32-1.65,0-2.98,1.71-2.98,4,0,1.46.49,2.44.49,2.44,0,0-1.69,7.16-1.99,8.41-.59,2.5-.09,5.56-.05,5.87.03.18.26.23.37.09.15-.2,2.12-2.63,2.79-5.05.19-.69,1.09-4.24,1.09-4.24.54,1.02,2.1,1.92,3.77,1.92,4.96,0,8.33-4.52,8.33-10.58,0-4.58-3.88-8.84-9.77-8.84-7.33,0-11.03,5.26-11.03,9.64,0,2.66,1.01,5.02,3.16,5.9Z"/>
          <g>
            <path class="cls-6" d="m34.24,198.45c-6.7,4.91-11.25,11.63-10.79,20.49.46,8.87,6.05,17.33,14.12,21.04,8.06,3.71,18.25,2.4,24.98-3.41,6.72-5.8,11.29-17.4,7.9-25.6-7.6-18.38-26.13-19.92-36.21-12.53Z"/>
            <path class="cls-6" d="m34.3,203.99c-2.1,1.69-3.65,4.06-4.36,6.67"/>
            <path class="cls-6" d="m29.04,214.36c-.04,1-.08,2-.13,3"/>
            <path class="cls-6" d="m67.63,216.27c-.32,8.09-5.14,15.85-12.24,19.73"/>
          </g>
        </g>
        <g>
          <path class="cls-18" d="m419.98,405.1c-1.05.46-2.2.77-3.4.93,1.24-.74,2.18-1.87,2.62-3.25-1.15.67-2.43,1.16-3.78,1.43-1.07-1.14-2.62-1.85-4.35-1.85-3.26,0-5.93,2.62-5.93,5.83,0,.47.08.91.17,1.33-4.94-.24-9.32-2.56-12.24-6.1-.5.88-.82,1.87-.82,2.93,0,2.04,1.07,3.83,2.63,4.86-.97-.02-1.88-.28-2.68-.72v.08c0,.75.14,1.44.41,2.1.72,1.84,2.37,3.22,4.36,3.61-.52.14-1.02.22-1.57.22-.38,0-.75-.05-1.11-.13.77,2.32,2.95,4.02,5.54,4.08-2.04,1.57-4.58,2.49-7.36,2.49-.49,0-.94-.03-1.43-.08,2.63,1.65,5.76,2.62,9.1,2.62,9.27,0,14.99-6.42,16.48-13.08.27-1.19.39-2.37.39-3.53v-.75c1.15-.83,2.17-1.87,2.95-3.03h0Z"/>
          <g>
            <path class="cls-6" d="m391,392.88c-6.7,4.91-11.25,11.63-10.79,20.49.46,8.87,6.05,17.33,14.12,21.04,8.06,3.71,18.25,2.4,24.98-3.41,6.72-5.8,11.29-17.4,7.9-25.6-7.6-18.38-26.13-19.92-36.21-12.53Z"/>
            <path class="cls-6" d="m391.06,398.42c-2.1,1.69-3.65,4.06-4.36,6.67"/>
            <path class="cls-6" d="m385.8,408.79c-.04,1-.08,2-.13,3"/>
            <path class="cls-6" d="m424.39,410.69c-.32,8.09-5.14,15.85-12.24,19.73"/>
          </g>
        </g>
        <path class="cls-19" d="m364.66,174.62h9.71v-24.31h6.77l.72-8.14h-7.49v-4.64c0-1.92.39-2.68,2.24-2.68h5.25v-8.45h-6.72c-7.22,0-10.48,3.18-10.48,9.27v6.49h-5.05v8.24h5.05v24.21Z"/>
        <line class="cls-6" x1="124.06" y1="336.14" x2="154.95" y2="333.91"/>
        <line class="cls-6" x1="78.02" y1="221.87" x2="105.86" y2="227.73"/>
        <g>
          <path class="cls-11" d="m308.73,293.55c22.76,18.26,58,38.27,61.48,41.44,2.82,2.56,8.34,6.25,7.77,15.01-.66,10.1-8.79,26.35-28.49,45.33-24.74,23.84-44.73,45.95-60.5,40.65-13.74-4.61-150.57-125.48-150.57-125.48-11.97-9.93-22.47-18.78-32.97-30.25-3.12-3.41-7.84-8.53-10.51-12.31-6.67-9.44-5.04-14.87,1.13-20.59,2.49-2.31,4.54,1.2,7.21-.91,22.6-17.79,45.25-35.62,69.49-51.11,2.79-1.78,5.78-3.59,9.09-3.65,3.47-.05,6.64,1.84,9.52,3.77,4.68,3.12,28.41,23.9,57.62,47.02"/>
          <path class="cls-4" d="m308.73,293.55c22.76,18.26,57.89,38.39,61.48,41.44,11.9,10.08,13.74,23.42-20.72,60.34-20.85,22.34-47.63,45.62-60.5,40.65-13.52-5.23-150.57-125.48-150.57-125.48-11.97-9.93-22.47-18.78-32.97-30.25-3.12-3.41-7.73-8.61-10.51-12.31-5.32-7.08-4.94-11.84-1.99-16.8,6.62-11.16,55.59-40.32,79.82-55.81,2.79-1.78,5.78-3.59,9.09-3.65,3.47-.05,6.64,1.84,9.52,3.77,4.68,3.12,28.41,23.9,57.62,47.02"/>
          <path class="cls-19" d="m308.73,287.98c22.76,18.26,54.33,40.85,57.81,44.02,3.03,2.76,9.32,9.12,8.06,18.42-1.27,9.3-10.09,21.55-27.68,39.41-21.44,21.77-45.05,45.54-57.93,40.58-13.52-5.23-150.57-125.48-150.57-125.48-11.97-9.93-23.25-20.68-33.75-32.14-3.12-3.41-6.22-6.95-8.08-11.18-1.88-4.22-2.38-9.29-.27-13.41,1.54-3.03,4.3-5.23,6.97-7.33,22.6-17.79,45.25-35.62,69.49-51.11,2.79-1.78,5.78-3.59,9.09-3.65,3.47-.05,6.64,1.84,9.52,3.77,4.68,3.12,28.74,25.91,57.96,49.02"/>
          <path class="cls-23" d="m293.18,430.4c-13.52-5.23-150.57-125.48-150.57-125.48-11.97-9.93-23.25-20.68-33.75-32.14-3.12-3.41-6.22-6.95-8.08-11.18-1.88-4.22-2.38-9.29-.27-13.41,1.54-3.03,4.3-5.23,6.97-7.33,22.6-17.79,45.25-35.62,69.49-51.11,2.23-1.43,4.6-2.85,7.15-3.4-.74-.16-1.49-.26-2.26-.25-3.31.06-6.3,1.87-9.09,3.65-24.24,15.49-46.89,33.32-69.49,51.11-2.67,2.1-5.43,4.3-6.97,7.33-2.1,4.11-1.6,9.18.27,13.41,1.87,4.23,4.96,7.77,8.08,11.18,10.5,11.47,21.78,22.22,33.75,32.14,0,0,137.05,120.25,150.57,125.48,1.81.7,3.87.83,6.1.5-.66-.11-1.3-.27-1.91-.5Z"/>
          <path class="cls-24" d="m304.75,291.46l54.36,43.42c2.85,2.27,3.93,6.12,2.66,9.53-.5,1.36-1.15,3.03-1.96,5.06-4.75,11.87-54.25,71.38-70.6,65.97-12.95-4.27-56.12-39.58-56.12-39.58l-85.31-75.7c-11.92-12.81-28.24-22.8-37.99-37.64-1.8-2.11-1.74-5.31-.58-7.82,1.16-2.52,3.23-4.49,5.28-6.37,18.17-16.85,43.92-34.34,64.37-48.43,3.8-2.62,9.17-4.02,15.93,1.06l54.31,43.62"/>
          <path class="cls-4" d="m295.53,277.31c22.76,18.26,67.53,51.52,71.01,54.69,3.35,3.04,10.26,10.09,7.56,21.28-2.19,9.08-11.61,20.72-27.19,36.55-21.44,21.77-45.05,45.54-57.93,40.58-13.52-5.23-150.57-125.48-150.57-125.48-11.97-9.93-23.25-20.68-33.75-32.14-3.12-3.41-6.22-6.95-8.08-11.18-1.88-4.22-2.38-9.29-.27-13.41,1.54-3.03,4.3-5.23,6.97-7.33,22.6-17.79,45.25-35.62,69.49-51.11,2.79-1.78,5.78-3.59,9.09-3.65,3.47-.05,6.64,1.84,9.52,3.77,4.68,3.12,75.54,64.79,104.75,87.91"/>
          <path class="cls-9" d="m292.92,281.64l66.19,53.24c2.85,2.27,3.93,6.12,2.66,9.53-.5,1.36-1.15,3.03-1.96,5.06-4.75,11.87-54.25,71.38-70.6,65.97-12.95-4.27-56.12-39.58-56.12-39.58l-85.31-75.7c-11.92-12.81-28.24-22.8-37.99-37.64-1.8-2.11-1.74-5.31-.58-7.82,1.16-2.52,3.23-4.49,5.28-6.37,18.17-16.85,43.92-34.34,64.37-48.43,3.8-2.62,9.17-4.02,15.93,1.06l54.31,43.62,43.83,37.06Z"/>
          <path class="cls-16" d="m316.84,297.85l-68.1-53.78-53.77-42.83c-6.06-4.52-12.2-4.9-17.76-1.1l-3.12,2.13c-19.82,13.52-44.48,30.36-61.97,46.43-2.36,2.16-4.42,4.17-5.66,6.83-1.54,3.3-1.25,6.94.74,9.32,6.15,9.25,14.85,16.67,23.27,23.85,5.2,4.43,10.57,9.02,15.15,13.9l86.18,75.84c1.79,1.45,43.9,35.54,57.06,39.84.82.27,1.7.4,2.64.4,19.83,0,66.06-56.55,70.37-67.21.75-1.86,1.42-3.57,1.99-5.1,1.5-4.02.23-8.51-47.03-48.52Zm44.29,47.5c-.56,1.5-1.22,3.19-1.96,5.03-2.29,5.66-15.99,23.54-30.91,39-17.79,18.43-32.17,28.21-38.48,26.14-12.66-4.14-55.7-38.98-56.08-39.29l-85.98-75.66c-4.68-4.98-10.1-9.61-15.34-14.08-8.28-7.07-16.85-14.38-22.78-23.32l-.11-.15c-1.47-1.71-1.25-4.36-.37-6.24,1.01-2.18,2.86-3.97,4.99-5.91,17.34-15.94,41.9-32.7,61.64-46.17l3.12-2.13c4.56-3.12,9.26-2.78,14.33,1l53.62,42.71h0s112.1,91.21,112.1,91.21c2.38,1.89,3.28,5.05,2.23,7.87Z"/>
          <g>
            <path class="cls-27" d="m138.84,222.89c-.47,0-.94-.22-1.23-.64-.48-.68-.31-1.61.37-2.09l11.9-8.36c.67-.48,1.61-.31,2.09.36.48.68.31,1.61-.37,2.09l-11.9,8.36c-.26.18-.56.27-.86.27Z"/>
            <path class="cls-27" d="m136.02,223.99c-.07-.25-.2-.47-.39-.66l-.3-.23c-.23-.14-.49-.2-.76-.2h-.41c-.21,0-.4.04-.58.13-.19.06-.35.16-.48.31-.15.14-.25.3-.31.48-.09.18-.14.37-.13.58.02.13.04.27.05.4.07.25.2.47.39.66l.3.23c.23.14.49.2.76.2h.41c.21,0,.4-.04.58-.13.19-.06.35-.16.48-.31.15-.14.25-.3.31-.48.09-.18.14-.37.13-.58-.02-.13-.04-.27-.05-.4Z"/>
          </g>
          <path class="cls-12" d="m359.83,350.33c.81-2.04,1.45-3.71,1.95-5.08,1.26-3.42.18-7.28-2.66-9.55l-61.65-48.9-47.96-41.61-52.11-45.66c-6.73-5.09-12.07-2.94-17.86.87-12.16,8-25.74,17.76-38.75,27.59.04-.03-15.67,12.23-15.03,11.87,6.53-3.68,57.67-35.26,69.88-27.81,13.49,8.23,154.22,124.11,159.2,131.19,4.82,6.86-44.78,57.43-67.76,72.23.88.41,1.68.75,2.39.98,16.3,5.41,65.61-54.24,70.34-66.13Z"/>
          <path class="cls-1" d="m187.9,263.99c6.54-5.63,13.08-11.27,19.63-16.9,2.82-2.43,5.73-4.9,9.25-6.21,10.78-3.97,25.93,9.18,33.87,15.01,11.26,8.27,21.64,17.57,32.5,26.31,6.56,5.28,13.68,9.86,19.93,15.52,1.56,1.41,3.11,3,3.65,5.01,1.04,3.91-4.93,8.63-7.25,11.3-9.75,11.19-20.59,22.05-32.09,31.82-6.02,5.11-13.68,12.2-20.15,16.77-5.42,3.82-8.36,9.04-15.08,4.4-7.1-4.89-70.72-59.81-74.57-63.43-4.23-3.97-4.82-9.24,0-13.36,9.57-8.17,20.78-18.03,30.32-26.24Z"/>
          <path class="cls-21" d="m187.9,263.99c6.54-5.63,13.08-11.27,19.63-16.9,2.82-2.43,5.73-4.9,9.25-6.21,10.78-3.97,25.93,9.18,33.87,15.01,11.26,8.27,21.64,17.57,32.5,26.31,6.56,5.28,13.68,9.86,19.93,15.52,1.56,1.41,3.11,3,3.65,5.01,1.04,3.91-4.93,8.63-7.25,11.3-9.75,11.19-20.59,22.05-32.09,31.82-6.02,5.11-13.68,12.2-20.15,16.77-5.42,3.82-8.36,9.04-15.08,4.4-7.1-4.89-70.72-59.81-74.57-63.43-4.23-3.97-4.82-9.24,0-13.36,9.57-8.17,20.78-18.03,30.32-26.24Z"/>
          <g>
            <g>
              <path class="cls-2" d="m262.29,387.29c-1.15-.14-2.31-.81-3.18-1.94-1.68-2.19-1.66-5.32.05-6.99l42.92-41.73c1.71-1.66,4.46-1.23,6.15.96,1.68,2.19,1.66,5.32-.05,6.99l-42.92,41.73c-.83.8-1.89,1.12-2.96.99Z"/>
              <path class="cls-2" d="m253.53,375.73c-.25-.03-.5-.17-.69-.42-.36-.47-.36-1.15.01-1.51l38.17-37.11c.37-.36.96-.27,1.33.21.36.47.36,1.15-.01,1.51l-38.17,37.11c-.18.17-.41.24-.64.21Z"/>
            </g>
            <path class="cls-5" d="m315.31,313.45c-2.85.68-2.66,4.02-2.41,5.6.06.37-.24.69-.58.62-1.43-.31-4.48-.59-5.17,2.51-2.01,9.1,10.79,6.43,12.92,5.93.18-.04.33-.2.37-.4.51-2.32,3.22-16.26-5.13-14.26Z"/>
          </g>
          <g>
            <path class="cls-8" d="m145.87,288.78c-1.52-.19-3.07-.99-4.25-2.32-2.27-2.57-2.32-6.18-.1-8.05l55.62-47.05c2.22-1.88,5.86-1.31,8.14,1.26,2.27,2.57,2.32,6.18.1,8.05l-55.62,47.05c-1.07.9-2.47,1.24-3.89,1.06Z"/>
            <path class="cls-8" d="m134.03,275.24c-.33-.04-.66-.21-.92-.5-.49-.55-.5-1.33-.02-1.74l49.46-41.84c.48-.4,1.26-.28,1.76.27.49.55.5,1.33.02,1.74l-49.46,41.84c-.23.2-.53.27-.84.23Z"/>
          </g>
        </g>
        <path class="cls-2" d="m257.56,317.87c-.2,2.35,2.79,3.39,4.65,4.85,3.44,2.7,2.73,9.04-1.23,10.9-4.55,2.15-9.73-1.44-14.76-1.41-3.54.03-6.81,1.86-10.29,2.5-4.17.76-8.64-.3-12.03-2.86-6.41-4.85-9.09-14.63-16.87-16.66-2.73-.71-5.7-.28-8.37-1.2-4.89-1.68-7.31-7.97-5.41-12.78,1.91-4.81,7.34-7.71,12.5-7.35,0,0,20.97,16.29,30.95,17.76,9.98,1.46,20.86,6.24,20.86,6.24Z"/>
        <g>
          <path class="cls-10" d="m249.12,177.81c.75-1.39,5.28-19.84,6.83-20.65,3.76-1.97,13.18,5.65,13.47,8.52.27,2.7-7.61,22.11-8.69,25.57l-8,4.02-3.62-17.46Z"/>
          <path class="cls-10" d="m206.86,308.29s-4.62-4.17-4.48-6.69c-.37,1.5,10.41-19.84,13.47-32.3,2.3-9.36,1.85-13.97.49-20.65-1.36-6.69-2.41-12.3-2.01-18.44.4-6.14-3.93-18.32-3.93-18.32l-1.66-8.36s-2.09-11.68,2.53-13.45c4.61-1.77,6.78,2.33,6.78,2.33l3.7,4.4,3.59,10.85,4.6,7.13s18.61-29.85,19.91-32.21c.04-.07,4.75,9.14,4.75,9.14,0,0,9.7-5.17,13.91,2.62,2.48,4.6,1.35,6.16,1.35,6.16,0,0,6.49,2.85,12.56,8.88.85,1.17,2.04,3.82,2.25,5.69,0,0,15.75,5.22,19.34,9.15-.03-.03.84,4.07.96,7.22.35,8.74-2.43,16.26-2.43,16.26-.16,2.79-7.15,15.16-7.15,15.16l-2.7,5.66c-1.29,2.7-2.76,5.32-4.41,7.82l-3.14,4.77-5.89,7.67-13.09,15.11s-9.32,13.8-10.53,19.47c-1.21,5.67-2.09,6.07-3.82,5.65-1.73-.41-26.77-7.9-33.12-12.67"/>
          <g>
            <path class="cls-7" d="m208.63,198.75c-.87,9.67,4.83,19.51,5.61,29.19.27,3.39-.12,6.82.17,10.21.31,3.54,1.36,6.98,1.93,10.49.96,5.9.78,14.81.17,17.88-1.61,8-8.55,27.2-14.12,35.07-.54.76,0,1.48.53,2.25,10.23,14.91,49.21,26.48,50.51,24.87,1.54-1.91,1.91-4.59,2.76-6.83,1.06-2.77,2.28-5.48,3.66-8.11,4.92-9.38,12.19-17.17,19.06-25.13,5.67-6.57,10.29-13.93,14.35-21.58,2.71-5.11,5.74-10.06,7.93-15.43,3.09-7.58,4.4-17.22,3.82-25.4-.3-4.25-16.24-9.14-19.92-10.97-3.68-1.83-6.48-1.53-8.6,1.28-2.12,2.81-11.95,10.96-10.7,13.99,1.25,3.03,2.92,3.14,8.33,2.93s10.8-7.67,10.8-7.67"/>
            <path class="cls-7" d="m210.51,190.69c-1.75,1.01-2.55,3.18-2.47,5.2.07,2.01,1.89,7.45,3.52,8.04.93.34,1.96.22,2.93,0,.85-.2,1.73-.5,2.33-1.13.83-.87.99-2.16,1.03-3.35.06-1.44,0-2.88-.14-4.31-.18-1.77.3-2.39-.84-3.76-1.81-2.18-4.76-1.6-6.37-.68Z"/>
            <path class="cls-7" d="m216.88,191.37c2,1.74,3.57,3.12,4.87,5.43,1.61,2.86,1.93,6.25,3,9.36,1.9,5.52,6.05,9.9,9.64,14.51,10.63,13.67,16.94,31.33,14.38,48.45"/>
          </g>
          <g>
            <path class="cls-13" d="m304.99,230.07c-.12-3.15-1.02-5.89-.99-5.86-.12-.13-.25-.26-.39-.39-3.35,18.92-13.39,36.62-28.02,49.1-7.46,6.37-16.35,11.79-20.63,20.61-2.63,5.42-3.57,12.15-8.44,15.7-3.72,2.71-8.93,2.71-13.18.95-4.26-1.76-7.71-5.03-10.72-8.51-2.85-3.3-5.69-7.05-9.87-8.29-2.08-.61-4.15-.52-6.18.02-2.26,4.83-4.04,8.23-4.19,8.25-.06,2.52,4.48,6.62,4.48,6.62l11.83,8.04c6.34,4.77,31.39,12.25,33.12,12.67,1.73.41,2.61.01,3.82-5.65,1.21-5.67,10.53-19.47,10.53-19.47l13.09-15.11,5.89-7.67,3.14-4.77c1.65-2.5,3.12-5.12,4.41-7.82l2.7-5.66s6.99-12.37,7.15-15.16c0,0,2.81-8.87,2.46-17.61Z"/>
            <path class="cls-13" d="m202.39,301.66s0-.05,0-.07c-.01.05,0,.07,0,.07Z"/>
          </g>
          <path class="cls-13" d="m248.23,248.36c1.68,7.39,2.9,14.14,1.36,21.56,4.33-14.62,7.31-28.67,6.11-43.87-.31-3.92-1.01-7.86-2.75-11.39-.95-1.93-2.2-3.7-3.44-5.46-3.24-4.6-5.45-12.89-8.69-17.49-.99,5.13-10.89,23.07-10.89,23.07.21,1.89,6.09,7.63,7.12,9.16,5.19,7.72,9.14,15.47,11.17,24.42Z"/>
          <path class="cls-19" d="m208.36,166.28s5.2,19.74,16.71,35.32c10.22,13.84,8.29,13.3,8.29,13.3,0,0,22.55,31.93,31.23,35.63-.23.3,1.82,2.52,3.72,1.97,1.9-.54,8.94-8.94,8.94-8.94l6.27-6.44-4.63-5.44s-4.72,2.19-7.51,1.9c-2.78-.3-3.69-.04-4.97-1.87-1.27-1.83.22-4.19,1.36-5.82,1.14-1.64,5.57-6.3,5.57-6.3,0,0-3.92-6.08-4.14-6.06s-2.72,1.79-5.46,2.65c-2.74.86-8.18,1.73-10.92.29-2.74-1.44-2.37-3.23-2.28-4.83.09-1.6,2.74-6.08,2.74-6.08,0,0-2.29-.94-3.85-2.26s-1.8-5.44.19-7.56,4.99-4.03,4.99-4.03c0,0-7.03-13.06-8.49-24.08-.12-1.14-22.85,4.39-30.73-2.8-.12-.09-2.12.96-4.56,1.21l-2.45.25Z"/>
          <path class="cls-7" d="m248.89,178.43c.75-1.4,4.95-19.58,6.5-20.39,3.76-1.97,14.31,3.2,14.61,6.08.27,2.7-7.91,22.71-8.98,26.17"/>
          <path class="cls-25" d="m311.12,54.79s-3.24-.46-4.6,6.12c-1.36,6.58-5.21,43.29-3.61,60.02.85,8.89,1.73,42.35,6.6,53.54,1.01,2.31,2.25,2.62,3.63,2.73,9.4.76,9.06-40.89,9.06-40.89l-1.17-43.45c-.02-1.95-.12-3.88-.31-5.82-.47-4.84-.62-14.88-.88-16.7-.36-2.47-1.45-15.53-8.72-15.56Z"/>
          <path class="cls-19" d="m208.36,166.28s7.24,19.38,17.28,35.95c5.77,9.51,8.02,12.76,8.02,12.76,0,0,21.85,30.52,30.59,35.58.47.06,2.86,2.56,4.58,1.94,1.86-.67,7.87-8.13,7.87-8.13l6.5-7.03-4.06-5.35s-5.32,1.93-8.1,1.63c-2.78-.3-3.18.18-4.45-1.64-1.27-1.83-.21-4.07.92-5.71,1.14-1.64,5.82-6.67,5.82-6.67,0,0-3.92-6.08-4.14-6.06s-3.07,1.82-5.81,2.68-7.11,2.14-9.86.7-3.15-4.21-3.06-5.81c.09-1.6,3.03-5.35,3.03-5.35,0,0-2.23-.87-3.8-2.2-1.57-1.33-2.48-5.21-.49-7.33s5.37-4.51,5.37-4.51c0,0-7.9-12.98-9.35-24-.12-1.14-21.78,4.09-29.66-3.1-.12-.09-2.66,1.21-5.11,1.46-1.29.48-1.03.43-2.11.21Z"/>
          <path class="cls-19" d="m249.54,108.23l2.57,29.34,4.28,27.87s11.21-.6,22.85,3.91c11.64,4.5,23.28,10.36,33.9,7.86.13-.06-3.79.77-5.49-10.11s-5.48-33.81-4.76-47.95c.72-14.13.16-31.26.99-35.81.83-4.55,2.21-19.97,2.48-21.57.27-1.6,1.24-6.23,4.44-6.98,3.2-.74-6.15.62-9.82,6.34-5.33,8.3-13.04,22.49-20.42,28.8-7.38,6.3-19.4,13.8-19.4,13.8l-11.62,4.5Z"/>
          <path class="cls-26" d="m242.03,109.07s-35.33,2.84-34.12,25.82c1.38,26.11,7.46,30.34,10.29,31.5,2.83,1.16,11.02,2.69,18.15,2.2,7.13-.49,12.8-2.24,12.8-2.24,0,0-5.68-34.33-5.96-37.2-.28-2.87-1.16-20.08-1.16-20.08Z"/>
          <path class="cls-20" d="m245.35,105.35s-4.6-.11-3.17,13.08c1.44,13.26,6.96,47.92,6.96,47.92,0,0,.41,2.71,3.86,2.37,5.17-.51,1.93-12.74,1.93-12.74l-5.4-47.74s-.68-4.02-4.19-2.89Z"/>
          <path class="cls-23" d="m236.46,120c2.04-.32,4.09-.59,6.14-.35-.29-5.23-.57-10.57-.57-10.57,0,0-35.3,3.15-34.12,25.82.16,3.16.43,5.99.73,8.54.16,1.34,2.1,1.28,2.21-.07,0-.04,0-.08,0-.12.42-5.28,1.9-10.68,5.4-14.66,4.93-5.62,12.82-7.42,20.2-8.59Z"/>
          <path class="cls-13" d="m311.12,54.79s-.01,0-.04,0c1.43,4.56,3.11,10.1,3.96,13.51,1.64,6.6,2.48,88.82-2.34,94.33-2.29,2.61-4.86-1.26-6.99-6.04.9,7.35,2.11,13.98,3.81,17.89,1.01,2.31,2.25,2.62,3.63,2.73,9.4.76,9.06-40.89,9.06-40.89l-1.17-43.45c-.02-1.95-.12-3.88-.31-5.82-.47-4.84-.62-14.88-.88-16.7-.36-2.47-1.45-15.53-8.72-15.56Z"/>
          <path class="cls-7" d="m256.39,165.44c11.52-1.49,23.63,4.28,34.49,8.41,7.27,2.76,15.62,5.08,23.28,3.23"/>
          <path class="cls-7" d="m311.74,54.83c-4.16.65-7.93,2.6-10.48,5.95-2.56,3.35-4.33,7.22-6.4,10.89-9.53,16.9-26.98,31.64-45.72,36.68"/>
          <path class="cls-7" d="m249.15,166.35c-6.76,1.83-13.59,2.79-20.59,2.17-5.1-.46-11.82-1.52-14.99-6.06-1.45-2.08-2.26-4.53-2.94-6.99-1.75-6.38-2.53-12.98-2.72-19.59-.13-4.9,1.06-8.99,3.15-12.38,6.27-10.17,20.56-14.03,30.96-14.42"/>
          <path class="cls-7" d="m208.62,129.27c-4.86,1.35-10.34,3.11-10.38,6.27s.74,6.28,1.52,9.35c1.1,4.39,2.21,8.78,3.31,13.17.86,3.42,2.31,7.44,5.76,8.18,2.14.46,4.28-.58,6.22-1.59"/>
          <path class="cls-7" d="m202.62,156.89c-1.23.31-2.46.61-3.7.92-.84.21-1.78.4-2.51-.05-.68-.41-.97-1.24-1.2-2-.57-1.85-1.14-3.7-1.71-5.55-.4-1.29-.8-2.7-.36-3.98.38-1.1,4.63-3.06,5.78-3.24"/>
          <path class="cls-7" d="m273.34,219.6l-3.54-5.65c-.29-.49-.95-.58-1.36-.19-1.91,1.82-7.66,3.96-11.24,3.64-4.51-.41-7.67-2.37-6.22-7.41,1.45-5.04,7.14-8.03,11.63-9.59,8.45-2.94,22.47,10.93,22.05,14.66"/>
          <path class="cls-7" d="m283.06,224.34c1.84,1.33,3.82,2.47,5.9,3.4"/>
          <path class="cls-7" d="m269.86,200.49s.62-4.75-2.95-8.19c-1.41-1.36-3.56-2-5.89-2.02-1.34-.01-2.75.19-4.11.57-.79.22-1.58.5-2.32.85-1.37.63-2.62,1.47-3.62,2.49-1.02,1.03-1.75,1.98-2.25,2.85-3.67,6.35,5.03,8.47,5.03,8.47"/>
          <path class="cls-7" d="m256.91,190.86c.72.64,1.87,2.03,2.26,3,.18.42.25.9.14,1.34-.02.1-.05.19-.09.29-.17.38-.49.67-.8.95-2.11,1.88-5.87,4.32-6,4.34-.17.02-.34-.09-.47-.2-1.04-.83-2.18-2.6-3.23-3.52-.06-.06-.11-.1-.17-.15"/>
          <path class="cls-7" d="m269.85,223.65c.96.64,1.8,1.45,2.47,2.39.08.11.15.22.18.34.04.21-.05.42-.15.61-1.16,2.28-3.06,4.17-5.34,5.32"/>
          <path class="cls-7" d="m246,167.13s3.96,18.96,8.58,24.58"/>
          <path class="cls-7" d="m231.3,211.9c-1.18,2.51-1.28,3.27-1.72,2.73"/>
          <path class="cls-7" d="m252.35,207.17l4.27,4.48,7.82-4.96s-2.48-5.01-4.48-5.25"/>
          <path class="cls-26" d="m303.19,104.01s22.02-2.55,23.87,15.62c2.32,22.76-22.87,20.09-22.87,20.09l-1-35.71Z"/>
          <path class="cls-14" d="m327.06,119.63c-.31-3.02-1.18-5.46-2.41-7.44-.29,3.76.24,7.69-1.1,11.22-1.33,3.49-4.42,6.01-7.8,7.29-3.73,1.41-7.82,1.86-11.77,1.3l.22,7.72s25.19,2.67,22.87-20.09Z"/>
          <path class="cls-7" d="m302.86,104.15c6.87-1.5,16.62,1.19,21.01,6.68,4.39,5.49,4.25,15.86.33,21.69-4.32,6.44-11.72,6.73-19.42,7.65"/>
          <path class="cls-13" d="m254.28,151.68l2.11,13.76s11.21-.6,22.85,3.91c11.64,4.51,23.28,10.36,33.9,7.86.13-.06-3.79.77-5.49-10.11-.26-1.69-.58-3.67-.92-5.86-2.97.63-6.06.65-9.06.15-9-1.49-16.68-7.37-25.48-9.76-5.76-1.57-12.09-1.54-17.92.05Z"/>
          <path class="cls-7" d="m321.74,108.71c-1.53-37.51-2.08-53.82-10-53.88-1.63-.01-3.19.88-4.03,2.28-.84,1.4-1.11,3.06-1.35,4.67-5.32,35.86-4.71,72.6,1.82,108.27.31,1.7.66,3.45,1.61,4.89.96,1.44,2.69,2.5,4.38,2.15,1.9-.39,3.29-2.22,3.84-4.09,3.49-11.82,3.22-25.84,4.33-38.27"/>
          <path class="cls-23" d="m300.98,61.14c-5.33,8.3-13.04,22.49-20.42,28.8-7.38,6.3-19.4,13.8-19.4,13.8l-11.62,4.5,1.74,19.86c5.41,1.49,11.66-.02,15.41-4.2,5.68-6.34,4.86-16.75,10.75-22.88,5.49-5.72,15.28-6.05,19.97-12.43,4.03-5.48,2.65-13.12,4.38-19.7.88-3.36,2.63-6.48,5-9.01.56-1.98,1.71-4.53,4.01-5.07,3.2-.74-6.15.62-9.82,6.34Z"/>
          <path class="cls-7" d="m249.43,167.29c.87,2.41,7.38,2.35,6.43-3.64-2.09-13.19-5.02-36.13-6.38-52.42-.19-2.3-.21-5.91-2.52-5.97-2.09-.06-3.57.57-4.38,2.16-.81,1.59-.8,3.45-.75,5.23.5,17.51,7,53,7.59,54.64Z"/>
          <path class="cls-14" d="m231.77,160.39c-6.84.4-13.11-1.93-18.35-6.23-.7-.58-2.07-1.76-3.41-2.31,2.45,11.23,6.13,13.7,8.19,14.54,2.83,1.16,11.02,2.69,18.15,2.2,7.13-.49,12.8-2.24,12.8-2.24,0,0-.88-5.35-1.97-11.99-1.59,1-3.14,2.09-4.78,3.01-3.25,1.8-6.92,2.81-10.62,3.03Z"/>
          <g class="cls-15">
            <path class="cls-20" d="m241.31,173.39s2.69,10.09,7.91,22.82c.12-.17.25-.33.39-.48,1.99-2.12,4.99-4.03,4.99-4.03,0,0-7.03-13.06-8.49-24.08-.12-1.14-22.85,4.39-30.73-2.8-.11-.08-1.63.71-3.64,1.08-.16.19-.26.31-.26.31,0,0,6.43,9.13,16.79,8.51,10.36-.62,13.04-1.33,13.04-1.33Z"/>
            <path class="cls-20" d="m267.78,225.9c1.14-1.64,5.57-6.3,5.57-6.3,0,0-3.92-6.08-4.14-6.06-.22.02-2.72,1.79-5.46,2.65-1.13.35-2.72.71-4.39.9,2.19,3.78,4.58,7.47,7.16,10.9.36-.75.84-1.47,1.27-2.08Z"/>
            <path class="cls-20" d="m283.53,237.13l-4.63-5.44s-4.72,2.19-7.51,1.9c-.1-.01-.19-.02-.28-.03,1.6,1.76,3.25,3.41,4.97,4.9,1.59,1.28,3.19,1.64,4.67,1.52l2.78-2.86Z"/>
          </g>
          <path class="cls-23" d="m270.1,245.61c-1.72-.32-3.68.6-5.16-.33-1.7-1.07-1.4-3.55-1.33-5.56.12-3.27-1.31-6.89-4.34-8.11-1.46-.59-3.09-.55-4.64-.81-3.27-.55-6.27-2.54-8.06-5.34-2.95-4.62-2.39-10.52-2.66-16-.22-4.52-1.07-9.01-2.52-13.3-.78-2.3-1.74-4.56-3.22-6.48-3.01-3.92-7.87-6.03-12.73-6.94-3.04-.57-6.17-.67-9.23-.25-.74.1-.74.07-1.5.25,2.39,5.53,5.01,10.37,10.09,18.43,9.17,14.56,8.55,13.73,8.55,13.73,0,0,22.92,30.92,31.23,35.63-.23.3,1.82,2.52,3.72,1.97.89-.26,2.91-2.24,4.81-4.28-.56-1.29-1.65-2.36-3.02-2.62Z"/>
          <path class="cls-7" d="m208.83,166.24c4.41,25.18,44.6,77.71,56,84.55,3.12-4.06,11.91-13.43,15.93-16.6"/>
        </g>
      </g>
    </g>
  </g>
</svg>