<svg id="Layer_1" data-name="Layer 1" xmlns="http://www.w3.org/2000/svg" viewBox="0 0 2000 2000"><defs><style>.cls-1{fill:none;}.cls-2{fill:#fff;}</style></defs><polygon class="cls-1" points="978.38 1948.01 257.35 1549.42 258.4 625.19 979.42 1023.78 978.38 1948.01"/><path class="cls-2" d="M363.45,1416.33l-9.63-5.32c-7.83-4.33-14.14-1.31-14.15,6.7l-.14,126.91,37.88,20.94.14-126.91c0-8-6.28-18-14.1-22.32"/><path class="cls-2" d="M415.94,1504.51l-9.59-5.3c-7.82-4.33-14.17-1.34-14.18,6.68l-.08,67.79,37.92,21,.08-67.79c0-8-6.33-18-14.15-22.34"/><path class="cls-2" d="M692,1598l-9.63-5.32c-7.82-4.33-14.13-1.31-14.14,6.71l-.14,126.91L706,1747.2l.14-126.91c0-8-6.28-18-14.11-22.32"/><path class="cls-2" d="M744.47,1724.3l-9.58-5.3c-7.83-4.33-14.18-1.34-14.19,6.68l0,29.64,37.92,21,0-29.64c0-8-6.32-18-14.15-22.34"/><path class="cls-2" d="M527.71,1507.14l-9.59-5.3c-7.82-4.33-14.17-1.33-14.18,6.68l-.14,126.91,37.92,21,.14-126.91c0-8-6.32-18-14.15-22.34"/><path class="cls-2" d="M580.25,1595.34l-9.63-5.32c-7.83-4.33-14.17-1.34-14.18,6.68l-.08,67.79,37.92,21,.08-67.79c0-8-6.33-18-14.11-22.32"/><path class="cls-2" d="M857.49,1831l-98.9-54.68-37.92-21L706,1747.2l-37.88-20.93-73.83-40.82-37.92-21-14.64-8.1-37.92-21L430,1594.64l-37.92-21-14.68-8.12-37.88-20.94-105-58v9.34c0,15.2,12,34.13,26.81,42.34L830.61,1853c14.81,8.18,26.86,2.54,26.87-12.67V1831"/><path class="cls-2" d="M790.94,1462.65,757.2,1444c-8.23-4.55-14.9-1.37-14.91,7.06s6.65,19,14.87,23.52l37,20.45-.34,300.73,19.86,11,.35-307.63c0-13.08-10.29-29.38-23.09-36.46"/><path class="cls-2" d="M335.53,1210.89l-33.74-18.65c-12.76-7.06-23.12-2.17-23.14,10.9l-.35,307.63,19.9,11,.34-300.72,37,20.43c8.26,4.57,14.93,1.43,14.94-7s-6.64-19-14.91-23.55"/><polygon class="cls-1" points="979.42 1023.78 258.4 625.19 1044.46 224.67 1765.48 623.26 979.42 1023.78"/><path class="cls-2" d="M899.11,873.55,554.83,683.23l58.72-29.92c65.48-33.37,175.28-9.48,271.86,43.91,94.14,52,135.5,114.28,72,146.65l-58.26,29.68Zm-389.2-277L383.3,661,934,965.43,1061,900.68c100.13-51,61-146.83-105.82-239-165.1-91.27-344.71-116.4-445.31-65.14Z"/><polygon class="cls-2" points="797.3 450.08 728.94 484.9 1279.6 789.32 1347.96 754.49 797.3 450.08 797.3 450.08"/><path class="cls-2" d="M1181,522.06l-148.6-82.15,72.22-36.8c27-13.74,75.73-8.76,121.13,16.35,47.07,26,54.43,52.07,27.47,65.8L1181,522.06ZM1011,341.17,860.84,417.7,1411.5,722.11l68.35-34.82L1284.18,579.11l50.07-25.51,258.73,76,79-40.23-282.41-78.88c20.65-25.42,3.93-73-92.68-126.43-102.37-56.59-218.9-77-285.82-42.93Z"/><polygon class="cls-1" points="1765.48 623.26 1764.44 1547.49 978.38 1948.01 979.42 1023.78 1765.48 623.26"/><path class="cls-2" d="M1104.36,1517.84l35.51-305.14L1174.75,1482l-70.39,35.86Zm65.79-462.59-60.24,30.69-87.73,711.8,54.49-27.76L1091,1649.67l96.8-49.32,14.08,105.82,54.49-27.76-86.23-623.16Z"/><path class="cls-2" d="M1353.27,951.94c-53.14,27.07-85.73,135.7-85.86,246.78-.29,251.18,129.77,103.9,129.63,220,0,39-12.6,80.44-39.34,94.07-31.13,15.86-55.79-13.58-71.64-54.52l-26.53,124.53c21.25,52.18,52.34,79.34,96,57.1,60.58-30.87,90.47-138.1,90.6-260.2.29-249.16-129.41-112.08-129.3-217.14.05-40,11.59-71.92,31.89-82.27,23-11.73,47.36-1.12,65.57,39.6l26.86-119.69c-22.27-49.67-52-66.53-87.88-48.25Z"/><polygon class="cls-2" points="1723.5 773.3 1655.81 807.79 1600.52 1253.04 1546.16 863.66 1478.81 897.98 1478.05 1565.46 1526.11 1540.98 1526.66 1059.64 1589.74 1508.56 1610.72 1497.86 1674.9 984.11 1674.35 1465.44 1722.74 1440.79 1723.5 773.3 1723.5 773.3"/><polygon class="cls-1" points="975.91 1023.78 975.41 1459.73 973.83 1028.95 685.06 1495.28 668.92 1102.49 568.48 1342.83 543.37 1159.88 439.34 1443.27 410.64 905.19 353.25 1027.16 254.49 961.37 254.78 725.19 256.39 626 975.91 1023.78"/><path class="cls-2" d="M1761.88,1548.73q-96.15,52.9-192.79,104.85c-64.34,34.8-129,69.05-193.46,103.53l-194,102.49L987.25,1961.34a13.76,13.76,0,0,1-20.13-12v-.2l-1.62-231.37c-.08-77.13-.65-154.25-.24-231.38.08-77.13.7-154.25,1.27-231.38l2.25-231.39,15.86,4.44-73.5,117.13L838,1262.49q-36.51,58.71-72.8,117.56l-72.45,117.77a4.86,4.86,0,0,1-9-2.34c-2.91-65.45-5.46-130.93-8.67-196.37l-4.66-98.17-5.12-98.16,13.77,2.47-97.62,241.52a10.2,10.2,0,0,1-19.54-2.35l0-.2-26.31-182.78,22.08,2.39L506.84,1306l-51,142a13.78,13.78,0,0,1-26.72-3.83V1444l-15.88-269-15.67-269,31.69,6.2L401,973.48l-28.64,61a17.21,17.21,0,0,1-22.88,8.26,19.25,19.25,0,0,1-2.14-1.19l-.1-.08-51.17-34C279,996.16,262,984.69,245,973.2l-.16-.1a17.13,17.13,0,0,1-7.44-14.38L240.79,792l1.73-83.37,2-83.36V625a15.27,15.27,0,0,1,8.45-13.28l198.93-99L651,414.18l199.44-98,99.81-48.83,100-48.49-2.94,4.78,1.56-85.22a3.8,3.8,0,0,1,7.59,0l1.57,85.22a5.21,5.21,0,0,1-2.76,4.68l-.18.1-98.21,52L858.5,332,661.55,435,464.33,537.34,266.88,639.27l8.44-13.51-.74,83.38-1,83.38-2.05,166.76L264,944.8c17.13,11.23,34.24,22.48,51.24,33.9l51.1,34.13-25.12,7,28.75-61,29.15-60.77.09-.18a16.63,16.63,0,0,1,31.61,6.39l13,269.1,12.82,269.13-26.74-4,53-141.33,53.25-141.24.07-.17a11.42,11.42,0,0,1,22,2.56l23.91,183.11-19.57-2.55,103.27-239.16.06-.15a7.14,7.14,0,0,1,13.7,2.61l3,98.25,3.4,98.22c2.18,65.49,5,130.95,7.48,196.42l-9-2.33,71.93-118.09c24-39.32,47.8-78.82,71.58-118.3l71.21-118.53L970,1019.1a8.54,8.54,0,0,1,15.86,4.21v.23l4,231.36c1.17,77.12,2.39,154.24,3.06,231.36,1,77.12,1,154.25,1.56,231.37l.17,231.38-20.12-12.22,195.72-99.15,196.1-98.39c65.54-32.48,131-65.19,196.65-97.35q98.4-48.51,197.32-96a1.62,1.62,0,0,1,1.48,2.87Z"/><path class="cls-2" d="M1052.67,37.09c17.69,47.68,47.87,106.83,79.84,143.5l-79.84-28.88-79.83,28.88C1004.81,143.92,1035,84.77,1052.67,37.09Z"/></svg>